<mxfile host="app.diagrams.net" modified="2022-05-20T02:41:20.859Z" agent="5.0 (Windows NT 10.0; Win64; x64) AppleWebKit/537.36 (KHTML, like Gecko) Chrome/101.0.4951.67 Safari/537.36" etag="9MQXuCgwmbcju0WTJLT_" version="17.4.5" type="github">
  <diagram id="C5RBs43oDa-KdzZeNtuy" name="Page-1">
    <mxGraphModel dx="1038" dy="587" grid="1" gridSize="10" guides="1" tooltips="1" connect="1" arrows="1" fold="1" page="1" pageScale="1" pageWidth="827" pageHeight="1169" math="0" shadow="0">
      <root>
        <mxCell id="WIyWlLk6GJQsqaUBKTNV-0" />
        <mxCell id="WIyWlLk6GJQsqaUBKTNV-1" parent="WIyWlLk6GJQsqaUBKTNV-0" />
        <mxCell id="WIyWlLk6GJQsqaUBKTNV-2" value="" style="rounded=0;html=1;jettySize=auto;orthogonalLoop=1;fontSize=11;endArrow=block;endFill=0;endSize=8;strokeWidth=1;shadow=0;labelBackgroundColor=none;edgeStyle=orthogonalEdgeStyle;" parent="WIyWlLk6GJQsqaUBKTNV-1" source="WIyWlLk6GJQsqaUBKTNV-3" target="WIyWlLk6GJQsqaUBKTNV-6" edge="1">
          <mxGeometry relative="1" as="geometry" />
        </mxCell>
        <mxCell id="WIyWlLk6GJQsqaUBKTNV-3" value="app launch" style="rounded=1;whiteSpace=wrap;html=1;fontSize=12;glass=0;strokeWidth=1;shadow=0;" parent="WIyWlLk6GJQsqaUBKTNV-1" vertex="1">
          <mxGeometry x="220" y="240" width="120" height="40" as="geometry" />
        </mxCell>
        <mxCell id="WIyWlLk6GJQsqaUBKTNV-4" value="Yes" style="rounded=0;html=1;jettySize=auto;orthogonalLoop=1;fontSize=11;endArrow=block;endFill=0;endSize=8;strokeWidth=1;shadow=0;labelBackgroundColor=none;edgeStyle=orthogonalEdgeStyle;entryX=0.5;entryY=0;entryDx=0;entryDy=0;" parent="WIyWlLk6GJQsqaUBKTNV-1" source="WIyWlLk6GJQsqaUBKTNV-6" target="4uhUdSGdRU7BiO-aYRFY-3" edge="1">
          <mxGeometry y="20" relative="1" as="geometry">
            <mxPoint as="offset" />
            <mxPoint x="280" y="450" as="targetPoint" />
          </mxGeometry>
        </mxCell>
        <mxCell id="WIyWlLk6GJQsqaUBKTNV-5" value="No" style="edgeStyle=orthogonalEdgeStyle;rounded=0;html=1;jettySize=auto;orthogonalLoop=1;fontSize=11;endArrow=block;endFill=0;endSize=8;strokeWidth=1;shadow=0;labelBackgroundColor=none;" parent="WIyWlLk6GJQsqaUBKTNV-1" source="WIyWlLk6GJQsqaUBKTNV-6" target="WIyWlLk6GJQsqaUBKTNV-7" edge="1">
          <mxGeometry y="10" relative="1" as="geometry">
            <mxPoint as="offset" />
          </mxGeometry>
        </mxCell>
        <mxCell id="WIyWlLk6GJQsqaUBKTNV-6" value="has open_id" style="rhombus;whiteSpace=wrap;html=1;shadow=0;fontFamily=Helvetica;fontSize=12;align=center;strokeWidth=1;spacing=6;spacingTop=-4;" parent="WIyWlLk6GJQsqaUBKTNV-1" vertex="1">
          <mxGeometry x="230" y="330" width="100" height="80" as="geometry" />
        </mxCell>
        <mxCell id="4uhUdSGdRU7BiO-aYRFY-2" style="edgeStyle=orthogonalEdgeStyle;rounded=0;orthogonalLoop=1;jettySize=auto;html=1;entryX=0.5;entryY=0;entryDx=0;entryDy=0;" edge="1" parent="WIyWlLk6GJQsqaUBKTNV-1" source="WIyWlLk6GJQsqaUBKTNV-7" target="4uhUdSGdRU7BiO-aYRFY-8">
          <mxGeometry relative="1" as="geometry">
            <mxPoint x="620" y="430" as="targetPoint" />
          </mxGeometry>
        </mxCell>
        <mxCell id="WIyWlLk6GJQsqaUBKTNV-7" value="silent login" style="rounded=1;whiteSpace=wrap;html=1;fontSize=12;glass=0;strokeWidth=1;shadow=0;" parent="WIyWlLk6GJQsqaUBKTNV-1" vertex="1">
          <mxGeometry x="560" y="350" width="120" height="40" as="geometry" />
        </mxCell>
        <mxCell id="4uhUdSGdRU7BiO-aYRFY-1" value="&lt;h1&gt;现有流程&lt;/h1&gt;&lt;p&gt;西兰花注册现有流程&lt;/p&gt;" style="text;html=1;strokeColor=none;fillColor=none;spacing=5;spacingTop=-20;whiteSpace=wrap;overflow=hidden;rounded=0;" vertex="1" parent="WIyWlLk6GJQsqaUBKTNV-1">
          <mxGeometry x="319" y="100" width="190" height="120" as="geometry" />
        </mxCell>
        <mxCell id="4uhUdSGdRU7BiO-aYRFY-5" style="edgeStyle=orthogonalEdgeStyle;rounded=0;orthogonalLoop=1;jettySize=auto;html=1;entryX=0.5;entryY=0;entryDx=0;entryDy=0;" edge="1" parent="WIyWlLk6GJQsqaUBKTNV-1" source="4uhUdSGdRU7BiO-aYRFY-3" target="4uhUdSGdRU7BiO-aYRFY-6">
          <mxGeometry relative="1" as="geometry">
            <mxPoint x="280" y="580" as="targetPoint" />
          </mxGeometry>
        </mxCell>
        <mxCell id="4uhUdSGdRU7BiO-aYRFY-3" value="fill form" style="rounded=1;whiteSpace=wrap;html=1;fontSize=12;glass=0;strokeWidth=1;shadow=0;" vertex="1" parent="WIyWlLk6GJQsqaUBKTNV-1">
          <mxGeometry x="220" y="470" width="120" height="40" as="geometry" />
        </mxCell>
        <mxCell id="4uhUdSGdRU7BiO-aYRFY-18" style="edgeStyle=orthogonalEdgeStyle;rounded=0;orthogonalLoop=1;jettySize=auto;html=1;entryX=0.5;entryY=0;entryDx=0;entryDy=0;" edge="1" parent="WIyWlLk6GJQsqaUBKTNV-1" source="4uhUdSGdRU7BiO-aYRFY-6" target="4uhUdSGdRU7BiO-aYRFY-19">
          <mxGeometry relative="1" as="geometry">
            <mxPoint x="280" y="700" as="targetPoint" />
          </mxGeometry>
        </mxCell>
        <mxCell id="4uhUdSGdRU7BiO-aYRFY-6" value="do next" style="rounded=1;whiteSpace=wrap;html=1;fontSize=12;glass=0;strokeWidth=1;shadow=0;" vertex="1" parent="WIyWlLk6GJQsqaUBKTNV-1">
          <mxGeometry x="220" y="580" width="120" height="40" as="geometry" />
        </mxCell>
        <mxCell id="4uhUdSGdRU7BiO-aYRFY-9" style="edgeStyle=orthogonalEdgeStyle;rounded=0;orthogonalLoop=1;jettySize=auto;html=1;entryX=0.5;entryY=0;entryDx=0;entryDy=0;" edge="1" parent="WIyWlLk6GJQsqaUBKTNV-1" source="4uhUdSGdRU7BiO-aYRFY-8" target="4uhUdSGdRU7BiO-aYRFY-26">
          <mxGeometry relative="1" as="geometry">
            <mxPoint x="620" y="545" as="targetPoint" />
          </mxGeometry>
        </mxCell>
        <mxCell id="4uhUdSGdRU7BiO-aYRFY-8" value="code to openid ..." style="rounded=1;whiteSpace=wrap;html=1;fontSize=12;glass=0;strokeWidth=1;shadow=0;" vertex="1" parent="WIyWlLk6GJQsqaUBKTNV-1">
          <mxGeometry x="560" y="430" width="120" height="40" as="geometry" />
        </mxCell>
        <mxCell id="4uhUdSGdRU7BiO-aYRFY-29" value="" style="edgeStyle=orthogonalEdgeStyle;rounded=0;orthogonalLoop=1;jettySize=auto;html=1;" edge="1" parent="WIyWlLk6GJQsqaUBKTNV-1" source="4uhUdSGdRU7BiO-aYRFY-13" target="4uhUdSGdRU7BiO-aYRFY-28">
          <mxGeometry relative="1" as="geometry" />
        </mxCell>
        <mxCell id="4uhUdSGdRU7BiO-aYRFY-13" value="create customer" style="rounded=1;whiteSpace=wrap;html=1;" vertex="1" parent="WIyWlLk6GJQsqaUBKTNV-1">
          <mxGeometry x="560" y="760" width="120" height="60" as="geometry" />
        </mxCell>
        <mxCell id="4uhUdSGdRU7BiO-aYRFY-15" value="return and save customer and open_Id" style="rounded=1;whiteSpace=wrap;html=1;" vertex="1" parent="WIyWlLk6GJQsqaUBKTNV-1">
          <mxGeometry x="560" y="630" width="120" height="60" as="geometry" />
        </mxCell>
        <mxCell id="4uhUdSGdRU7BiO-aYRFY-20" value="no" style="edgeStyle=orthogonalEdgeStyle;rounded=0;orthogonalLoop=1;jettySize=auto;html=1;" edge="1" parent="WIyWlLk6GJQsqaUBKTNV-1" source="4uhUdSGdRU7BiO-aYRFY-19" target="4uhUdSGdRU7BiO-aYRFY-13">
          <mxGeometry relative="1" as="geometry">
            <mxPoint x="360" y="790" as="targetPoint" />
          </mxGeometry>
        </mxCell>
        <mxCell id="4uhUdSGdRU7BiO-aYRFY-21" value="yes" style="edgeStyle=orthogonalEdgeStyle;rounded=0;orthogonalLoop=1;jettySize=auto;html=1;entryX=0.5;entryY=0;entryDx=0;entryDy=0;" edge="1" parent="WIyWlLk6GJQsqaUBKTNV-1" source="4uhUdSGdRU7BiO-aYRFY-19" target="4uhUdSGdRU7BiO-aYRFY-22">
          <mxGeometry relative="1" as="geometry">
            <mxPoint x="280" y="890" as="targetPoint" />
          </mxGeometry>
        </mxCell>
        <mxCell id="4uhUdSGdRU7BiO-aYRFY-19" value="has customer" style="rhombus;whiteSpace=wrap;html=1;" vertex="1" parent="WIyWlLk6GJQsqaUBKTNV-1">
          <mxGeometry x="240" y="750" width="80" height="80" as="geometry" />
        </mxCell>
        <mxCell id="4uhUdSGdRU7BiO-aYRFY-22" value="create package" style="rounded=1;whiteSpace=wrap;html=1;" vertex="1" parent="WIyWlLk6GJQsqaUBKTNV-1">
          <mxGeometry x="220" y="970" width="120" height="60" as="geometry" />
        </mxCell>
        <mxCell id="4uhUdSGdRU7BiO-aYRFY-27" style="edgeStyle=orthogonalEdgeStyle;rounded=0;orthogonalLoop=1;jettySize=auto;html=1;" edge="1" parent="WIyWlLk6GJQsqaUBKTNV-1" source="4uhUdSGdRU7BiO-aYRFY-26" target="4uhUdSGdRU7BiO-aYRFY-15">
          <mxGeometry relative="1" as="geometry" />
        </mxCell>
        <mxCell id="4uhUdSGdRU7BiO-aYRFY-26" value="get customer by open_Id" style="rounded=1;whiteSpace=wrap;html=1;" vertex="1" parent="WIyWlLk6GJQsqaUBKTNV-1">
          <mxGeometry x="560" y="520" width="120" height="60" as="geometry" />
        </mxCell>
        <mxCell id="4uhUdSGdRU7BiO-aYRFY-28" value="return and save customer" style="rounded=1;whiteSpace=wrap;html=1;" vertex="1" parent="WIyWlLk6GJQsqaUBKTNV-1">
          <mxGeometry x="560" y="860" width="120" height="60" as="geometry" />
        </mxCell>
        <mxCell id="4uhUdSGdRU7BiO-aYRFY-31" value="" style="rounded=0;html=1;jettySize=auto;orthogonalLoop=1;fontSize=11;endArrow=block;endFill=0;endSize=8;strokeWidth=1;shadow=0;labelBackgroundColor=none;edgeStyle=orthogonalEdgeStyle;" edge="1" parent="WIyWlLk6GJQsqaUBKTNV-1" source="4uhUdSGdRU7BiO-aYRFY-32" target="4uhUdSGdRU7BiO-aYRFY-35">
          <mxGeometry relative="1" as="geometry" />
        </mxCell>
        <mxCell id="4uhUdSGdRU7BiO-aYRFY-32" value="app launch" style="rounded=1;whiteSpace=wrap;html=1;fontSize=12;glass=0;strokeWidth=1;shadow=0;" vertex="1" parent="WIyWlLk6GJQsqaUBKTNV-1">
          <mxGeometry x="940" y="240" width="120" height="40" as="geometry" />
        </mxCell>
        <mxCell id="4uhUdSGdRU7BiO-aYRFY-33" value="Yes" style="rounded=0;html=1;jettySize=auto;orthogonalLoop=1;fontSize=11;endArrow=block;endFill=0;endSize=8;strokeWidth=1;shadow=0;labelBackgroundColor=none;edgeStyle=orthogonalEdgeStyle;entryX=0.5;entryY=0;entryDx=0;entryDy=0;" edge="1" parent="WIyWlLk6GJQsqaUBKTNV-1" source="4uhUdSGdRU7BiO-aYRFY-35" target="4uhUdSGdRU7BiO-aYRFY-39">
          <mxGeometry y="20" relative="1" as="geometry">
            <mxPoint as="offset" />
            <mxPoint x="1000" y="450" as="targetPoint" />
          </mxGeometry>
        </mxCell>
        <mxCell id="4uhUdSGdRU7BiO-aYRFY-34" value="No" style="edgeStyle=orthogonalEdgeStyle;rounded=0;html=1;jettySize=auto;orthogonalLoop=1;fontSize=11;endArrow=block;endFill=0;endSize=8;strokeWidth=1;shadow=0;labelBackgroundColor=none;" edge="1" parent="WIyWlLk6GJQsqaUBKTNV-1" source="4uhUdSGdRU7BiO-aYRFY-35" target="4uhUdSGdRU7BiO-aYRFY-37">
          <mxGeometry y="10" relative="1" as="geometry">
            <mxPoint as="offset" />
          </mxGeometry>
        </mxCell>
        <mxCell id="4uhUdSGdRU7BiO-aYRFY-35" value="has open_id" style="rhombus;whiteSpace=wrap;html=1;shadow=0;fontFamily=Helvetica;fontSize=12;align=center;strokeWidth=1;spacing=6;spacingTop=-4;" vertex="1" parent="WIyWlLk6GJQsqaUBKTNV-1">
          <mxGeometry x="950" y="330" width="100" height="80" as="geometry" />
        </mxCell>
        <mxCell id="4uhUdSGdRU7BiO-aYRFY-36" style="edgeStyle=orthogonalEdgeStyle;rounded=0;orthogonalLoop=1;jettySize=auto;html=1;entryX=0.5;entryY=0;entryDx=0;entryDy=0;" edge="1" parent="WIyWlLk6GJQsqaUBKTNV-1" source="4uhUdSGdRU7BiO-aYRFY-37" target="4uhUdSGdRU7BiO-aYRFY-43">
          <mxGeometry relative="1" as="geometry">
            <mxPoint x="1340" y="430" as="targetPoint" />
          </mxGeometry>
        </mxCell>
        <mxCell id="4uhUdSGdRU7BiO-aYRFY-37" value="silent login" style="rounded=1;whiteSpace=wrap;html=1;fontSize=12;glass=0;strokeWidth=1;shadow=0;" vertex="1" parent="WIyWlLk6GJQsqaUBKTNV-1">
          <mxGeometry x="1280" y="350" width="120" height="40" as="geometry" />
        </mxCell>
        <mxCell id="4uhUdSGdRU7BiO-aYRFY-38" style="edgeStyle=orthogonalEdgeStyle;rounded=0;orthogonalLoop=1;jettySize=auto;html=1;entryX=0.5;entryY=0;entryDx=0;entryDy=0;" edge="1" parent="WIyWlLk6GJQsqaUBKTNV-1" source="4uhUdSGdRU7BiO-aYRFY-39" target="4uhUdSGdRU7BiO-aYRFY-41">
          <mxGeometry relative="1" as="geometry">
            <mxPoint x="1000" y="580" as="targetPoint" />
          </mxGeometry>
        </mxCell>
        <mxCell id="4uhUdSGdRU7BiO-aYRFY-39" value="fill form" style="rounded=1;whiteSpace=wrap;html=1;fontSize=12;glass=0;strokeWidth=1;shadow=0;" vertex="1" parent="WIyWlLk6GJQsqaUBKTNV-1">
          <mxGeometry x="940" y="470" width="120" height="40" as="geometry" />
        </mxCell>
        <mxCell id="4uhUdSGdRU7BiO-aYRFY-63" style="edgeStyle=orthogonalEdgeStyle;rounded=0;orthogonalLoop=1;jettySize=auto;html=1;" edge="1" parent="WIyWlLk6GJQsqaUBKTNV-1" source="4uhUdSGdRU7BiO-aYRFY-41" target="4uhUdSGdRU7BiO-aYRFY-50">
          <mxGeometry relative="1" as="geometry" />
        </mxCell>
        <mxCell id="4uhUdSGdRU7BiO-aYRFY-41" value="do next" style="rounded=1;whiteSpace=wrap;html=1;fontSize=12;glass=0;strokeWidth=1;shadow=0;" vertex="1" parent="WIyWlLk6GJQsqaUBKTNV-1">
          <mxGeometry x="940" y="580" width="120" height="40" as="geometry" />
        </mxCell>
        <mxCell id="4uhUdSGdRU7BiO-aYRFY-42" style="edgeStyle=orthogonalEdgeStyle;rounded=0;orthogonalLoop=1;jettySize=auto;html=1;entryX=0.5;entryY=0;entryDx=0;entryDy=0;" edge="1" parent="WIyWlLk6GJQsqaUBKTNV-1" source="4uhUdSGdRU7BiO-aYRFY-43" target="4uhUdSGdRU7BiO-aYRFY-52">
          <mxGeometry relative="1" as="geometry">
            <mxPoint x="1340" y="545" as="targetPoint" />
          </mxGeometry>
        </mxCell>
        <mxCell id="4uhUdSGdRU7BiO-aYRFY-43" value="code to openid ..." style="rounded=1;whiteSpace=wrap;html=1;fontSize=12;glass=0;strokeWidth=1;shadow=0;" vertex="1" parent="WIyWlLk6GJQsqaUBKTNV-1">
          <mxGeometry x="1280" y="420" width="120" height="40" as="geometry" />
        </mxCell>
        <mxCell id="4uhUdSGdRU7BiO-aYRFY-50" value="create package" style="rounded=1;whiteSpace=wrap;html=1;" vertex="1" parent="WIyWlLk6GJQsqaUBKTNV-1">
          <mxGeometry x="940" y="850" width="120" height="60" as="geometry" />
        </mxCell>
        <mxCell id="4uhUdSGdRU7BiO-aYRFY-51" style="edgeStyle=orthogonalEdgeStyle;rounded=0;orthogonalLoop=1;jettySize=auto;html=1;entryX=0.5;entryY=0;entryDx=0;entryDy=0;" edge="1" parent="WIyWlLk6GJQsqaUBKTNV-1" source="4uhUdSGdRU7BiO-aYRFY-52" target="4uhUdSGdRU7BiO-aYRFY-56">
          <mxGeometry relative="1" as="geometry">
            <mxPoint x="1340" y="590" as="targetPoint" />
          </mxGeometry>
        </mxCell>
        <mxCell id="4uhUdSGdRU7BiO-aYRFY-52" value="get customer by open_Id" style="rounded=1;whiteSpace=wrap;html=1;" vertex="1" parent="WIyWlLk6GJQsqaUBKTNV-1">
          <mxGeometry x="1280" y="500" width="120" height="60" as="geometry" />
        </mxCell>
        <mxCell id="4uhUdSGdRU7BiO-aYRFY-55" value="return and save customer and open_Id" style="rounded=1;whiteSpace=wrap;html=1;" vertex="1" parent="WIyWlLk6GJQsqaUBKTNV-1">
          <mxGeometry x="1280" y="750" width="120" height="60" as="geometry" />
        </mxCell>
        <mxCell id="4uhUdSGdRU7BiO-aYRFY-58" value="no" style="edgeStyle=orthogonalEdgeStyle;rounded=0;orthogonalLoop=1;jettySize=auto;html=1;entryX=0.5;entryY=0;entryDx=0;entryDy=0;" edge="1" parent="WIyWlLk6GJQsqaUBKTNV-1" source="4uhUdSGdRU7BiO-aYRFY-56" target="4uhUdSGdRU7BiO-aYRFY-57">
          <mxGeometry relative="1" as="geometry" />
        </mxCell>
        <mxCell id="4uhUdSGdRU7BiO-aYRFY-59" value="yes" style="edgeStyle=orthogonalEdgeStyle;rounded=0;orthogonalLoop=1;jettySize=auto;html=1;" edge="1" parent="WIyWlLk6GJQsqaUBKTNV-1" source="4uhUdSGdRU7BiO-aYRFY-56" target="4uhUdSGdRU7BiO-aYRFY-55">
          <mxGeometry relative="1" as="geometry" />
        </mxCell>
        <mxCell id="4uhUdSGdRU7BiO-aYRFY-56" value="has customer" style="rhombus;whiteSpace=wrap;html=1;" vertex="1" parent="WIyWlLk6GJQsqaUBKTNV-1">
          <mxGeometry x="1300" y="600" width="80" height="80" as="geometry" />
        </mxCell>
        <mxCell id="4uhUdSGdRU7BiO-aYRFY-61" style="edgeStyle=orthogonalEdgeStyle;rounded=0;orthogonalLoop=1;jettySize=auto;html=1;entryX=1;entryY=0.5;entryDx=0;entryDy=0;" edge="1" parent="WIyWlLk6GJQsqaUBKTNV-1" source="4uhUdSGdRU7BiO-aYRFY-57" target="4uhUdSGdRU7BiO-aYRFY-55">
          <mxGeometry relative="1" as="geometry">
            <Array as="points">
              <mxPoint x="1500" y="780" />
            </Array>
          </mxGeometry>
        </mxCell>
        <mxCell id="4uhUdSGdRU7BiO-aYRFY-57" value="create customer" style="rounded=1;whiteSpace=wrap;html=1;" vertex="1" parent="WIyWlLk6GJQsqaUBKTNV-1">
          <mxGeometry x="1440" y="690" width="120" height="60" as="geometry" />
        </mxCell>
        <mxCell id="4uhUdSGdRU7BiO-aYRFY-62" value="&lt;h1&gt;新流程&lt;/h1&gt;&lt;p&gt;西兰花注册现有流程&lt;/p&gt;" style="text;html=1;strokeColor=none;fillColor=none;spacing=5;spacingTop=-20;whiteSpace=wrap;overflow=hidden;rounded=0;" vertex="1" parent="WIyWlLk6GJQsqaUBKTNV-1">
          <mxGeometry x="1146" y="100" width="190" height="120" as="geometry" />
        </mxCell>
      </root>
    </mxGraphModel>
  </diagram>
</mxfile>
